# xmcd
#
# Track frame offsets: 
#        150
#        24052
#        35670
#        44637
#        58547
#        72487
#        85825
#        99287
#        112560
#        124512
#        140522
#        155475
#        183687
#
# Disc length: 2694 seconds
#
# Revision: 0
# Processed by: cddbd v1.5.1PL0 Copyright (c) Steve Scherf et al.
# Submitted via: ExactAudioCopy v0.95a5
#
DISCID=a60a840d
DTITLE=The Jon Spencer Blues Explosion - Orange
DYEAR=2000
DGENRE=Blues
TTITLE0=Bellbottoms
TTITLE1=Ditch
TTITLE2=Dang
TTITLE3=Very Rare
TTITLE4=Sweat
TTITLE5=Cowboy
TTITLE6=Orange
TTITLE7=Brenda
TTITLE8=Dissect
TTITLE9=Blues X Man
TTITLE10=Full Grown
TTITLE11=Flavor
TTITLE12=Greyhound
EXTD=
EXTT0=
EXTT1=
EXTT2=
EXTT3=
EXTT4=
EXTT5=
EXTT6=
EXTT7=
EXTT8=
EXTT9=
EXTT10=
EXTT11=
EXTT12=
PLAYORDER=
